<?xml version="1.0" encoding="utf-8"?>
<!-- Generator: Adobe Illustrator 22.1.0, SVG Export Plug-In . SVG Version: 6.00 Build 0)  -->
<svg version="1.1" id="Слой_1" xmlns="http://www.w3.org/2000/svg" xmlns:xlink="http://www.w3.org/1999/xlink" x="0px" y="0px"
	 viewBox="0 0 135 99" style="enable-background:new 0 0 135 99;" xml:space="preserve">
<style type="text/css">
	.st0{fill:#FFFFFF;enable-background:new    ;}
</style>
<path class="st0" d="M134.9,0.4c-3.7,15.5-7.5,32.3-11.2,50.4c-3.7,17.9-6.7,33.7-8.8,47.6h-38L74.1,94c3.7-14.1,8.8-29.6,15.2-46.4
	c6.4-17.1,12.9-32.8,19.6-47.2H134.9z M60.9,0.4c-3.7,15.5-7.5,32.3-11.2,50.4c-3.7,17.9-6.7,33.7-8.8,47.6H3.3L0.9,94
	c3.7-14.1,8.7-29.6,14.8-46.4c6.4-17.1,12.9-32.8,19.6-47.2H60.9z"/>
</svg>
