<svg width="135" height="99" viewBox="0 0 135 99" fill="none" xmlns="http://www.w3.org/2000/svg">
<path opacity="0.05" d="M134.925 0.399902C131.192 15.8666 127.458 32.6666 123.725 50.7999C119.992 68.6666 117.058 84.5332 114.925 98.3999H76.925L74.125 93.9999C77.8583 79.8666 82.925 64.3999 89.325 47.5999C95.725 30.5332 102.258 14.7999 108.925 0.399902H134.925ZM60.925 0.399902C57.1917 15.8666 53.4583 32.6666 49.725 50.7999C45.9917 68.6666 43.0583 84.5332 40.925 98.3999H3.325L0.925003 93.9999C4.65834 79.8666 9.59167 64.3999 15.725 47.5999C22.125 30.5332 28.6583 14.7999 35.325 0.399902H60.925Z" fill="white"/>
</svg>
