<?xml version="1.0" encoding="utf-8"?>
<!-- Generator: Adobe Illustrator 22.1.0, SVG Export Plug-In . SVG Version: 6.00 Build 0)  -->
<svg version="1.1" id="Слой_1" xmlns="http://www.w3.org/2000/svg" xmlns:xlink="http://www.w3.org/1999/xlink" x="0px" y="0px"
	 viewBox="0 0 134 98" style="enable-background:new 0 0 134 98;" xml:space="preserve">
<style type="text/css">
	.st0{fill:#FFFFFF;enable-background:new    ;}
</style>
<path class="st0" d="M0,98c3.7-15.5,7.5-32.3,11.2-50.4C14.9,29.7,17.9,13.9,20,0h38l2.8,4.4C57.1,18.5,52,34,45.6,50.8
	C39.2,67.9,32.7,83.6,26,98H0z M74,98c3.7-15.5,7.5-32.3,11.2-50.4C88.9,29.7,91.9,13.9,94,0h37.6l2.4,4.4
	c-3.7,14.1-8.7,29.6-14.8,46.4c-6.4,17.1-12.9,32.8-19.6,47.2H74z"/>
</svg>
