<svg width="134" height="98" viewBox="0 0 134 98" fill="none" xmlns="http://www.w3.org/2000/svg">
<path opacity="0.05" d="M0 98C3.73334 82.5333 7.46667 65.7333 11.2 47.6C14.9333 29.7333 17.8667 13.8667 20 -1.52588e-05H58L60.8 4.39998C57.0667 18.5333 52 34 45.6 50.8C39.2 67.8667 32.6667 83.6 26 98H0ZM74 98C77.7333 82.5333 81.4667 65.7333 85.2 47.6C88.9333 29.7333 91.8667 13.8667 94 -1.52588e-05H131.6L134 4.39998C130.267 18.5333 125.333 34 119.2 50.8C112.8 67.8667 106.267 83.6 99.6 98H74Z" fill="white"/>
</svg>
