<svg width="44" height="44" viewBox="0 0 44 44" fill="none" xmlns="http://www.w3.org/2000/svg">
<circle cx="22" cy="22" r="18" fill="white"/>
<circle cx="22" cy="22" r="20" stroke="white" stroke-opacity="0.1" stroke-width="4"/>
<path d="M27.5161 21.8714V22.1288C27.5157 22.2493 27.4842 22.3676 27.4246 22.4723C27.365 22.577 27.2794 22.6646 27.1759 22.7264L18.9477 27.5162C18.4513 27.8104 18.1938 27.8104 17.9732 27.6817L17.7434 27.553C17.6426 27.4928 17.5586 27.4082 17.4991 27.307C17.4397 27.2057 17.4067 27.0911 17.4032 26.9738V17.0264C17.4036 16.9059 17.4351 16.7876 17.4947 16.6828C17.5543 16.5781 17.6399 16.4906 17.7434 16.4288L17.9732 16.3001C18.1938 16.1714 18.4513 16.1714 19.0948 16.5483L27.1759 21.2738C27.2794 21.3356 27.365 21.4231 27.4246 21.5279C27.4842 21.6326 27.5157 21.7509 27.5161 21.8714Z" fill="#272C30"/>
</svg>
