<svg width="66" height="66" viewBox="0 0 66 66" fill="none" xmlns="http://www.w3.org/2000/svg">
<circle cx="33" cy="33" r="25" fill="#272C30"/>
<circle cx="33" cy="33" r="29" stroke="white" stroke-opacity="0.2" stroke-width="8"/>
<path d="M40.6613 32.8212V33.1787C40.6608 33.346 40.617 33.5104 40.5342 33.6558C40.4515 33.8012 40.3325 33.9228 40.1888 34.0087L28.7608 40.6612C28.0712 41.0698 27.7137 41.0698 27.4073 40.8911L27.088 40.7123C26.9481 40.6287 26.8314 40.5112 26.7488 40.3706C26.6662 40.23 26.6204 40.0708 26.6156 39.9079V26.092C26.6161 25.9247 26.6599 25.7603 26.7427 25.6149C26.8254 25.4694 26.9444 25.3479 27.088 25.262L27.4073 25.0833C27.7137 24.9045 28.0712 24.9045 28.9651 25.428L40.1888 31.9912C40.3325 32.0771 40.4515 32.1986 40.5342 32.344C40.617 32.4895 40.6608 32.6538 40.6613 32.8212Z" fill="white"/>
</svg>
