<svg width="149" height="38" viewBox="0 0 149 38" fill="none" xmlns="http://www.w3.org/2000/svg">
<g clip-path="url(#clip0)">
<path d="M7.23141 16.3484V18.2769H2.67141V20.4011H7.00626V22.3296H2.67141V26.1866H0.475006V16.3484H7.23141Z" fill="#EAE9E9"/>
<path d="M20.349 16.3484H22.5454V26.1866H20.349V16.3484Z" fill="#EAE9E9"/>
<path d="M40.3931 18.2484V26.1866H38.1976V18.2484H35.4094V16.3484H43.1775V18.2484H40.3931Z" fill="#EAE9E9"/>
<path d="M64.0243 19.6145C64.0243 21.1887 63.4001 22.209 62.1509 22.6688L64.6408 26.1885H61.9419L59.7597 23.0488H58.2397V26.1885H56.0433V16.3494H59.7711C61.3006 16.3494 62.3903 16.6078 63.0439 17.1236C63.6965 17.6395 64.0243 18.4688 64.0243 19.6145ZM61.3766 20.784C61.6512 20.5398 61.787 20.1513 61.787 19.6212C61.787 19.0901 61.6455 18.7272 61.3643 18.5296C61.0812 18.333 60.591 18.2342 59.887 18.2342H58.2407V21.1488H59.8433C60.5938 21.1497 61.1049 21.0262 61.3766 20.784Z" fill="#EAE9E9"/>
<path d="M84.5452 26.1885L83.6304 24.0624H79.5074L78.5916 26.1885H76.2537L80.5049 16.3494H82.631L86.8823 26.1885H84.5452ZM81.5775 19.2763L80.3377 22.1349H82.7992L81.5775 19.2763Z" fill="#EAE9E9"/>
<path d="M106.8 17.6366C107.735 18.4954 108.205 19.6886 108.205 21.221C108.205 22.7495 107.748 23.9579 106.831 24.8519C105.917 25.742 104.522 26.1885 102.645 26.1885H99.2826V16.3494H102.757C104.514 16.3484 105.859 16.7778 106.8 17.6366ZM105.19 23.4858C105.727 22.9785 105.997 22.2422 105.997 21.2751C105.997 20.308 105.727 19.5651 105.19 19.0436C104.649 18.5239 103.82 18.2627 102.705 18.2627H101.481V24.2448H102.875C103.878 24.2448 104.647 23.9931 105.19 23.4858Z" fill="#EAE9E9"/>
<path d="M121.366 16.3484H123.563V26.1866H121.366V16.3484Z" fill="#EAE9E9"/>
<path d="M145.519 24.8301C144.527 25.801 143.301 26.2864 141.847 26.2864C140.394 26.2864 139.169 25.801 138.173 24.8301C137.178 23.8592 136.682 22.6508 136.682 21.2049C136.682 19.7609 137.178 18.5515 138.173 17.5816C139.169 16.6116 140.392 16.1252 141.847 16.1252C143.301 16.1252 144.527 16.6107 145.519 17.5816C146.514 18.5515 147.013 19.7618 147.013 21.2049C147.013 22.6508 146.514 23.8582 145.519 24.8301ZM144.774 21.2115C144.774 20.3356 144.493 19.5861 143.931 18.9676C143.366 18.3492 142.676 18.0376 141.854 18.0376C141.032 18.0376 140.34 18.3492 139.777 18.9676C139.214 19.5861 138.931 20.3356 138.931 21.2115C138.931 22.0893 139.214 22.837 139.777 23.4488C140.34 24.0644 141.032 24.3712 141.854 24.3712C142.676 24.3712 143.366 24.0653 143.931 23.4488C144.493 22.837 144.774 22.0893 144.774 21.2115Z" fill="#EAE9E9"/>
</g>
<defs>
<clipPath id="clip0">
<rect width="148.438" height="38" fill="white"/>
</clipPath>
</defs>
</svg>
